IKResults
version=1
nRows=19
nColumns=34
inDegrees=yes

Units are S.I. units (second, meters, Newtons, ...)
If the header above contains a line with 'inDegrees', this indicates whether rotational values are in degrees (yes) or radians (no).

endheader
time	pelvis_tilt	pelvis_list	pelvis_rotation	pelvis_tx	pelvis_ty	pelvis_tz	hip_flexion_r	hip_adduction_r	hip_rotation_r	knee_angle_r	ankle_angle_r	subtalar_angle_r	mtp_angle_r	hip_flexion_l	hip_adduction_l	hip_rotation_l	knee_angle_l	socket_flexion	socket_adduction	socket_rotation	socket_tx	socket_ty	socket_tz	pros_ankle_rx	pros_ankle_ry	pros_ankle_rz	pros_ankle_tx	pros_ankle_ty	pros_ankle_tz	foot_flex	lumbar_extension	lumbar_bending	lumbar_rotation
      0.30105000	      2.34097677	     -5.09892438	     -2.64048309	     -0.37735171	      1.04925930	      0.35540658	      8.16152128	      1.09662742	     -7.28706114	    -63.54658844	     -2.11624643	     10.01163693	     16.09769431	      6.74726676	     -4.52438864	    -11.44073234	    -24.74143977	     -4.53516830	     -1.39537933	     10.13912159	      0.00000000	     -0.01587937	      0.00000000	      0.00000000	      0.00000000	      0.00000000	      0.00000000	      0.00000000	      0.00000000	      5.72233541	    -19.95914269	     -5.27799896	      3.20727200
      0.30523000	      2.46038368	     -5.20672588	     -2.56274053	     -0.37194975	      1.05013485	      0.35512158	      8.60068846	      1.22559025	     -7.37986632	    -63.50390701	     -1.12100356	     10.13896585	     16.11570042	      6.18056779	     -4.60769263	    -11.52944721	    -24.54663215	     -4.53860957	     -1.41100314	     10.25470143	      0.00000000	     -0.01576258	      0.00000000	      0.00000000	      0.00000000	      0.00000000	      0.00000000	      0.00000000	      0.00000000	      5.83929862	    -20.01910928	     -5.11165738	      3.03659281
      0.30941000	      2.54557119	     -5.30735271	     -2.48020325	     -0.36666980	      1.05088847	      0.35480409	      9.09416324	      1.29403519	     -7.56813985	    -63.42489017	     -0.39613352	     10.11941711	     16.15335264	      5.69593019	     -4.68924313	    -11.58451062	    -24.44086223	     -4.57491881	     -1.41863259	     10.34494387	      0.00000000	     -0.01554582	      0.00000000	      0.00000000	      0.00000000	      0.00000000	      0.00000000	      0.00000000	      0.00000000	      6.04119744	    -20.07504073	     -4.96021114	      2.96185863
      0.31359000	      2.74048728	     -5.37433191	     -2.43535470	     -0.36120623	      1.05190773	      0.35459314	      9.40821177	      1.36695170	     -7.64186252	    -63.24860831	      0.71108286	     10.58061004	     16.03673592	      4.94232781	     -4.71397669	    -11.72504049	    -23.96767793	     -4.41469918	     -1.40350102	     10.47875948	      0.00000000	     -0.01550636	      0.00000000	      0.00000000	      0.00000000	      0.00000000	      0.00000000	      0.00000000	      0.00000000	      6.13763286	    -20.24242885	     -4.79866868	      2.70139444
      0.31777000	      2.81362726	     -5.47797291	     -2.32656963	     -0.35598070	      1.05262020	      0.35426547	      9.88311974	      1.46075783	     -7.83513144	    -63.05259035	      1.45079841	     10.47918942	     16.07399990	      4.48792643	     -4.79411778	    -11.72596959	    -23.86163172	     -4.44245446	     -1.41294710	     10.54547018	      0.00000000	     -0.01530743	      0.00000000	      0.00000000	      0.00000000	      0.00000000	      0.00000000	      0.00000000	      0.00000000	      6.28841957	    -20.27763369	     -4.64776433	      2.66662516
      0.32195000	      2.87831689	     -5.61567977	     -2.23628382	     -0.35078155	      1.05336487	      0.35399147	     10.34597654	      1.63173039	     -7.96628591	    -62.78018732	      2.30711300	     10.47739589	     16.11712279	      4.02007589	     -4.91819278	    -11.74422898	    -23.70592233	     -4.44707517	     -1.41472204	     10.62340384	      0.00000000	     -0.01513024	      0.00000000	      0.00000000	      0.00000000	      0.00000000	      0.00000000	      0.00000000	      0.00000000	      6.40925476	    -20.30853045	     -4.42737444	      2.55761185
      0.32613000	      2.93436578	     -5.73754012	     -2.16388164	     -0.34557402	      1.05407522	      0.35372580	     10.80733818	      1.76614177	     -8.11183595	    -62.44985562	      3.04689363	     10.52882530	     16.14302829	      3.56234744	     -5.02340444	    -11.79101339	    -23.55759032	     -4.44366224	     -1.41365150	     10.68514499	      0.00000000	     -0.01493899	      0.00000000	      0.00000000	      0.00000000	      0.00000000	      0.00000000	      0.00000000	      0.00000000	      6.53901119	    -20.34866103	     -4.23094333	      2.44176534
      0.33031000	      3.00236884	     -5.87022845	     -2.08900448	     -0.34040392	      1.05476689	      0.35347387	     11.24241234	      1.91888080	     -8.25933369	    -62.07490749	      3.80256019	     10.63153613	     16.15229855	      3.08277525	     -5.14133671	    -11.82686832	    -23.37263807	     -4.42322497	     -1.40620524	     10.77013742	      0.00000000	     -0.01481328	      0.00000000	      0.00000000	      0.00000000	      0.00000000	      0.00000000	      0.00000000	      0.00000000	      6.65028406	    -20.38535432	     -4.00721328	      2.30775734
      0.33449000	      3.08351109	     -6.00319057	     -2.02083231	     -0.33525475	      1.05548458	      0.35319883	     11.64977219	      2.05833301	     -8.41971227	    -61.63727592	      4.48106252	     10.77721922	     16.12394099	      2.58351044	     -5.25250901	    -11.87800757	    -23.16340247	     -4.38379028	     -1.40089973	     10.82263699	      0.00000000	     -0.01467417	      0.00000000	      0.00000000	      0.00000000	      0.00000000	      0.00000000	      0.00000000	      0.00000000	      6.75478936	    -20.44990806	     -3.77841410	      2.17406788
      0.33868000	      3.12957489	     -6.01580512	     -2.01606369	     -0.33037039	      1.05609020	      0.35299435	     12.15840801	      2.06054855	     -8.51691217	    -61.23221443	      4.60448859	     10.77180126	     16.12178905	      2.21210447	     -5.23400825	    -11.87462438	    -23.18492691	     -4.50422070	     -1.42922324	     10.80727811	      0.00000000	     -0.01418376	      0.00000000	      0.00000000	      0.00000000	      0.00000000	      0.00000000	      0.00000000	      0.00000000	      6.82838493	    -20.50526852	     -3.76918040	      2.16097215
      0.34286000	      3.16940155	     -6.24684304	     -1.87162573	     -0.32511668	      1.05676206	      0.35268483	     12.51643193	      2.32811011	     -8.75883815	    -60.61631538	      5.64930590	     10.86899687	     16.12497499	      1.75398398	     -5.46959436	    -11.93435049	    -22.91971719	     -4.37812467	     -1.41273911	     10.93868578	      0.00000000	     -0.01417289	      0.00000000	      0.00000000	      0.00000000	      0.00000000	      0.00000000	      0.00000000	      0.00000000	      7.01014479	    -20.52863203	     -3.42088452	      2.00354995
      0.34704000	      3.21189422	     -6.25239692	     -1.88187570	     -0.32030176	      1.05727441	      0.35250181	     13.02305964	      2.32387550	     -8.85144956	    -60.16037513	      5.76537925	     10.86922591	     16.11905994	      1.38678491	     -5.44307422	    -11.93265635	    -22.94106377	     -4.50119643	     -1.44035336	     10.91972521	      0.00000000	     -0.01374981	      0.00000000	      0.00000000	      0.00000000	      0.00000000	      0.00000000	      0.00000000	      0.00000000	      7.07486569	    -20.58920806	     -3.40265932	      1.98833548
      0.35122000	      3.25326689	     -6.52130063	     -1.71578288	     -0.31500612	      1.05796060	      0.35224986	     13.30734514	      2.66294780	     -9.08986407	    -59.37926697	      6.73745679	     11.02218294	     16.07657269	      0.91988912	     -5.73174672	    -11.99711447	    -22.63789549	     -4.35083333	     -1.41071190	     11.06066783	      0.00000000	     -0.01373004	      0.00000000	      0.00000000	      0.00000000	      0.00000000	      0.00000000	      0.00000000	      0.00000000	      7.26018645	    -20.60867121	     -2.99788499	      1.80682707
      0.35540000	      3.29925670	     -6.61274564	     -1.66263927	     -0.31002614	      1.05856650	      0.35198694	     13.68268023	      2.77116712	     -9.23026040	    -58.68232659	      7.09327485	     11.11565615	     16.00364932	      0.51231378	     -5.79949795	    -12.04628131	    -22.51355268	     -4.34249685	     -1.42678689	     11.07906789	      0.00000000	     -0.01341665	      0.00000000	      0.00000000	      0.00000000	      0.00000000	      0.00000000	      0.00000000	      0.00000000	      7.35757536	    -20.69520022	     -2.83248200	      1.71825169
      0.35958000	      3.72541148	     -6.69549659	     -1.60985118	     -0.30475739	      1.05985805	      0.35164874	     13.57429684	      2.81437546	     -9.43543122	    -57.92155475	      7.78115181	     11.57505052	     14.36234423	     -0.76245191	     -5.73682065	    -11.97358083	    -21.14528138	     -3.61531909	     -1.22978571	     10.95584004	      0.00000000	     -0.01375850	      0.00000000	      0.00000000	      0.00000000	      0.00000000	      0.00000000	      0.00000000	      0.00000000	      7.46126888	    -21.19499994	     -2.62583280	      1.58514715
      0.36376000	      3.72578237	     -6.83923146	     -1.52953675	     -0.29976895	      1.06028452	      0.35145660	     13.96169036	      3.00471173	     -9.60478479	    -57.15358682	      8.23278393	     11.58210291	     14.33616270	     -1.09237234	     -5.88138488	    -11.98567502	    -21.09151168	     -3.64728288	     -1.23833667	     10.98579999	      0.00000000	     -0.01350388	      0.00000000	      0.00000000	      0.00000000	      0.00000000	      0.00000000	      0.00000000	      0.00000000	      7.59003800	    -21.18681848	     -2.43518596	      1.49857522
      0.36794000	      3.75281110	     -6.98853544	     -1.43963697	     -0.29476732	      1.06080247	      0.35123143	     14.28566801	      3.20624252	     -9.77031263	    -56.30027341	      8.58660561	     11.60982021	     14.22808362	     -1.47035220	     -6.03582578	    -12.02226176	    -20.99542708	     -3.65531577	     -1.24886423	     11.06445259	      0.00000000	     -0.01323641	      0.00000000	      0.00000000	      0.00000000	      0.00000000	      0.00000000	      0.00000000	      0.00000000	      7.69617241	    -21.24288274	     -2.15357682	      1.38926897
      0.37213000	      3.74032790	     -6.99349397	     -1.40960465	     -0.28996028	      1.06121814	      0.35106638	     14.69741583	      3.23669111	     -9.88521002	    -55.49367775	      8.79300456	     11.59974167	     14.20321695	     -1.74616206	     -6.01719024	    -12.07166587	    -21.00916735	     -3.70980073	     -1.27605282	     11.03440549	      0.00000000	     -0.01269380	      0.00000000	      0.00000000	      0.00000000	      0.00000000	      0.00000000	      0.00000000	      0.00000000	      7.79296715	    -21.31780767	     -2.14372060	      1.36855041
      0.37631000	      3.80791219	     -7.28216022	     -1.26095953	     -0.28476975	      1.06169668	      0.35084474	     14.88148811	      3.60913387	    -10.11639613	    -54.48127867	      9.29156757	     11.58898364	     14.02125595	     -2.22894026	     -6.33963547	    -12.11332520	    -20.77977478	     -3.66339950	     -1.26171127	     11.21689328	      0.00000000	     -0.01275330	      0.00000000	      0.00000000	      0.00000000	      0.00000000	      0.00000000	      0.00000000	      0.00000000	      7.92220586	    -21.33124938	     -1.68794766	      1.22237872
